<svg width="151" height="85" viewBox="0 0 151 85" fill="none" xmlns="http://www.w3.org/2000/svg">
        <path
            d="M10.9773 56.5269V71.4587H2.64205V36.5496H10.7045V50.0837H10.9943C11.5852 48.4701 12.5511 47.2087 13.892 46.2996C15.2443 45.3906 16.8977 44.936 18.8523 44.936C20.6932 44.936 22.2955 45.3451 23.6591 46.1633C25.0227 46.9701 26.0795 48.1121 26.8295 49.5894C27.5909 51.0667 27.9659 52.794 27.9545 54.7712V71.4587H19.6193V56.4076C19.6307 54.9531 19.267 53.8167 18.5284 52.9985C17.7898 52.1803 16.75 51.7712 15.4091 51.7712C14.5341 51.7712 13.7614 51.9644 13.0909 52.3508C12.4318 52.7258 11.9148 53.2656 11.5398 53.9701C11.1761 54.6746 10.9886 55.5269 10.9773 56.5269ZM40.5384 71.9019C38.8679 71.9019 37.3849 71.6235 36.0895 71.0667C34.8054 70.4985 33.7884 69.6462 33.0384 68.5099C32.2997 67.3621 31.9304 65.9246 31.9304 64.1974C31.9304 62.7428 32.1861 61.5156 32.6974 60.5156C33.2088 59.5156 33.9134 58.7031 34.8111 58.0781C35.7088 57.4531 36.7429 56.9815 37.9134 56.6633C39.0838 56.3337 40.3338 56.1121 41.6634 55.9985C43.152 55.8621 44.3509 55.7201 45.2599 55.5724C46.169 55.4133 46.8281 55.1917 47.2372 54.9076C47.6577 54.6121 47.8679 54.1974 47.8679 53.6633V53.5781C47.8679 52.7031 47.5668 52.0269 46.9645 51.5496C46.3622 51.0724 45.5497 50.8337 44.527 50.8337C43.4247 50.8337 42.5384 51.0724 41.8679 51.5496C41.1974 52.0269 40.7713 52.686 40.5895 53.5269L32.902 53.2542C33.1293 51.6633 33.7145 50.2428 34.6577 48.9928C35.6122 47.7315 36.919 46.7428 38.5781 46.0269C40.2486 45.2996 42.2543 44.936 44.5952 44.936C46.2656 44.936 47.8054 45.1349 49.2145 45.5326C50.6236 45.919 51.8509 46.4871 52.8963 47.2371C53.9418 47.9758 54.7486 48.8849 55.3168 49.9644C55.8963 51.044 56.1861 52.2769 56.1861 53.6633V71.4587H48.3452V67.811H48.1406C47.6747 68.6974 47.0781 69.4474 46.3509 70.061C45.6349 70.6746 44.7884 71.1349 43.8111 71.4417C42.8452 71.7485 41.7543 71.9019 40.5384 71.9019ZM43.1122 66.4474C44.0099 66.4474 44.8168 66.2656 45.5327 65.9019C46.2599 65.5383 46.8395 65.0383 47.2713 64.4019C47.7031 63.7542 47.919 63.0042 47.919 62.1519V59.6633C47.6804 59.7883 47.3906 59.9019 47.0497 60.0042C46.7202 60.1065 46.3565 60.2031 45.9588 60.294C45.5611 60.3849 45.152 60.4644 44.7315 60.5326C44.3111 60.6008 43.9077 60.6633 43.5213 60.7201C42.7372 60.8451 42.0668 61.0383 41.5099 61.2996C40.9645 61.561 40.544 61.9019 40.2486 62.3224C39.9645 62.7315 39.8224 63.2201 39.8224 63.7883C39.8224 64.6519 40.1293 65.311 40.7429 65.7656C41.3679 66.2201 42.1577 66.4474 43.1122 66.4474ZM61.2827 71.4587V36.5496H69.6179V49.7599H69.7884C70.1293 48.9644 70.6122 48.1974 71.2372 47.4587C71.8736 46.7201 72.6804 46.1178 73.6577 45.6519C74.6463 45.1746 75.8281 44.936 77.2031 44.936C79.0213 44.936 80.7202 45.4133 82.2997 46.3678C83.8906 47.3224 85.1747 48.794 86.152 50.7826C87.1293 52.7712 87.6179 55.3053 87.6179 58.3849C87.6179 61.3508 87.1463 63.8337 86.2031 65.8337C85.2713 67.8337 84.0099 69.3337 82.419 70.3337C80.8395 71.3337 79.0838 71.8337 77.152 71.8337C75.8338 71.8337 74.6918 71.6178 73.7259 71.186C72.7599 70.7542 71.9474 70.186 71.2884 69.4815C70.6406 68.7769 70.1406 68.0212 69.7884 67.2144H69.5327V71.4587H61.2827ZM69.4474 58.3678C69.4474 59.7769 69.6349 61.0042 70.0099 62.0496C70.3963 63.0951 70.9474 63.9076 71.6634 64.4871C72.3906 65.0553 73.2599 65.3394 74.2713 65.3394C75.294 65.3394 76.1634 65.0553 76.8793 64.4871C77.5952 63.9076 78.1349 63.0951 78.4986 62.0496C78.8736 61.0042 79.0611 59.7769 79.0611 58.3678C79.0611 56.9587 78.8736 55.7371 78.4986 54.7031C78.1349 53.669 77.5952 52.8678 76.8793 52.2996C76.1747 51.7315 75.3054 51.4474 74.2713 51.4474C73.2486 51.4474 72.3793 51.7258 71.6634 52.2826C70.9474 52.8394 70.3963 53.6349 70.0099 54.669C69.6349 55.7031 69.4474 56.936 69.4474 58.3678ZM91.9858 71.4587V45.2769H100.321V71.4587H91.9858ZM96.1619 42.2258C94.9915 42.2258 93.9858 41.8394 93.1449 41.0667C92.304 40.2826 91.8835 39.3394 91.8835 38.2371C91.8835 37.1462 92.304 36.2144 93.1449 35.4417C93.9858 34.6576 94.9915 34.2656 96.1619 34.2656C97.3438 34.2656 98.3494 34.6576 99.179 35.4417C100.02 36.2144 100.44 37.1462 100.44 38.2371C100.44 39.3394 100.02 40.2826 99.179 41.0667C98.3494 41.8394 97.3438 42.2258 96.1619 42.2258ZM120.405 45.2769V51.4133H103.888V45.2769H120.405ZM107.348 39.0042H115.683V63.2258C115.683 63.7371 115.763 64.1519 115.922 64.4701C116.092 64.7769 116.337 64.9985 116.655 65.1349C116.973 65.2599 117.354 65.3224 117.797 65.3224C118.115 65.3224 118.45 65.294 118.803 65.2371C119.166 65.169 119.439 65.1121 119.621 65.0667L120.882 71.0837C120.484 71.1974 119.922 71.3394 119.195 71.5099C118.479 71.6803 117.621 71.7883 116.621 71.8337C114.666 71.9246 112.99 71.6974 111.592 71.1519C110.206 70.5951 109.143 69.7315 108.405 68.561C107.678 67.3906 107.325 65.919 107.348 64.1462V39.0042ZM147.188 53.2712L139.534 53.4758C139.455 52.9303 139.239 52.4474 138.886 52.0269C138.534 51.5951 138.074 51.2599 137.506 51.0212C136.949 50.7712 136.301 50.6462 135.562 50.6462C134.597 50.6462 133.773 50.8394 133.091 51.2258C132.42 51.6121 132.091 52.1349 132.102 52.794C132.091 53.3053 132.295 53.7485 132.716 54.1235C133.148 54.4985 133.915 54.7996 135.017 55.0269L140.062 55.9815C142.676 56.4815 144.619 57.311 145.892 58.4701C147.176 59.6292 147.824 61.1633 147.835 63.0724C147.824 64.8678 147.29 66.4303 146.233 67.7599C145.188 69.0894 143.756 70.1235 141.938 70.8621C140.119 71.5894 138.04 71.9531 135.699 71.9531C131.96 71.9531 129.011 71.186 126.852 69.6519C124.705 68.1065 123.477 66.0383 123.17 63.4474L131.403 63.2428C131.585 64.1974 132.057 64.9246 132.818 65.4246C133.58 65.9246 134.551 66.1746 135.733 66.1746C136.801 66.1746 137.67 65.9758 138.341 65.5781C139.011 65.1803 139.352 64.6519 139.364 63.9928C139.352 63.4019 139.091 62.9303 138.58 62.5781C138.068 62.2144 137.267 61.9303 136.176 61.7258L131.608 60.8565C128.983 60.3792 127.028 59.4985 125.744 58.2144C124.46 56.919 123.824 55.2712 123.835 53.2712C123.824 51.5212 124.29 50.0269 125.233 48.7883C126.176 47.5383 127.517 46.5837 129.256 45.9246C130.994 45.2656 133.045 44.936 135.409 44.936C138.955 44.936 141.75 45.6803 143.795 47.169C145.841 48.6462 146.972 50.6803 147.188 53.2712Z"
            fill="white" />
        <rect x="0.5" y="0.95874" width="15" height="15" rx="3.5" fill="#18181B" stroke="#27272A" />
        <rect x="20.5" y="0.95874" width="15" height="15" rx="3.5" fill="#4C1D95" stroke="#6D28D9" />
        <rect x="40.5" y="0.95874" width="15" height="15" rx="3.5" fill="#5B21B6" stroke="#7C3AED" />
        <rect x="60.5" y="0.95874" width="15" height="15" rx="3.5" fill="#6D28D9" stroke="#8B5CF6" />
        <rect x="80.5" y="0.95874" width="15" height="15" rx="3.5" fill="#7C3AED" stroke="#A78BFA" />
        <rect x="100.5" y="0.95874" width="15" height="15" rx="3.5" fill="#8B5CF6" stroke="#C4B5FD" />
    </svg>